:FULLY-SPECIFIED
:FORCE-ALL-JOINTS-BE-3DOF
:DEGREES
238
root 5.60289 15.7466 -25.9357 10.2394 23.5782 -6.17932
lfemur -41.6313 34.5578 -6.22187
ltibia 55.675 -0 0
lfoot -12.1035 4.35808 -0.207498
ltoes -7.78241 0 0
rfemur -22.1126 -14.6176 5.26063
rtibia 43.096 -0 0
rfoot -20.551 -0.70007 -1.60121
rtoes 43.0976 -0 0
lowerback 1.83239 -2.10189 1.75308
upperback -0.564747 -2.72934 2.89199
thorax -1.53856 -1.3542 2.07662
lowerneck -11.5468 -2.56024 -0.389323
upperneck 1.03061 -3.35217 0.301463
head 2.34452 -1.66656 -0.0203133
lclavicle 1.70955e-14 -1.66979e-14 0
lhumerus -52.6105 -36.8962 120.656
lradius 61.4029 -0 0
lwrist 18.3443 0 0
lhand 9.55698 13.7964 -0.289927
lfingers 7.12502 -0 0
lthumb 34.7691 40.9817 -0.0193996
rclavicle 1.70955e-14 -1.66979e-14 0
rhumerus -39.6267 -1.07061 -74.9611
rradius 96.769 -0 0
rwrist -14.1033 0 0
rhand 40.7962 -18.5526 -7.22036
rfingers 7.12502 -0 0
rthumb 55.9495 -41.8008 9.76252
239
root 5.68446 15.7821 -25.9355 10.1172 25.5673 -6.00865
lfemur -42.1018 34.093 -7.38811
ltibia 55.5462 -0 0
lfoot -12.0606 3.70133 -0.206999
ltoes -4.49843 0 0
rfemur -21.5782 -13.2845 5.11333
rtibia 44.1804 -0 0
rfoot -17.8785 -1.94689 -1.79705
rtoes 39.666 -0 0
lowerback 1.86647 -2.13695 1.60037
upperback -0.576221 -2.77772 3.02732
thorax -1.55361 -1.37505 2.30421
lowerneck -11.4403 -2.96433 -0.592079
upperneck 1.09823 -3.86214 0.308822
head 2.35437 -1.92249 -0.0105416
lclavicle 1.70955e-14 -1.66979e-14 0
lhumerus -52.4123 -36.5703 120.612
lradius 61.492 -0 0
lwrist 18.3485 0 0
lhand 9.00753 13.4764 -0.325182
lfingers 7.12502 -0 0
lthumb 34.2535 40.8392 -0.023401
rclavicle 1.70955e-14 -1.66979e-14 0
rhumerus -40.422 -1.29431 -75.2719
rradius 93.3645 -0 0
rwrist -10.1007 0 0
rhand 37.9885 -16.5851 -8.06956
rfingers 7.12502 -0 0
rthumb 52.7585 -43.2243 10.3256
240
root 5.76466 15.8156 -25.9336 9.99388 27.6012 -5.80233
lfemur -42.434 33.5177 -8.53012
ltibia 55.2932 -0 0
lfoot -12.0716 2.97333 -0.19869
ltoes -0.901289 0 0
rfemur -21.0501 -11.8926 4.94085
rtibia 45.3437 -0 0
rfoot -15.0784 -3.21976 -1.94169
rtoes 36.0958 -0 0
lowerback 1.89403 -2.17263 1.43343
upperback -0.588603 -2.82749 3.14559
thorax -1.56589 -1.39675 2.52191
lowerneck -11.3255 -3.38076 -0.789122
upperneck 1.17479 -4.39033 0.320099
head 2.36626 -2.18721 -0.0014645
lclavicle 1.70955e-14 -1.66979e-14 0
lhumerus -52.222 -36.2482 120.558
lradius 61.5703 -0 0
lwrist 18.3713 0 0
lhand 8.49622 13.1766 -0.355318
lfingers 7.12502 -0 0
lthumb 33.7724 40.6945 -0.0275941
rclavicle 1.70955e-14 -1.66979e-14 0
rhumerus -41.1511 -1.55844 -75.4392
rradius 89.7159 -0 0
rwrist -5.90819 0 0
rhand 34.7997 -14.5759 -8.73192
rfingers 7.12502 -0 0
rthumb 49.3852 -44.4388 10.5949
241
root 5.84453 15.8474 -25.9299 9.87305 29.6578 -5.56256
lfemur -42.626 32.8444 -9.63627
ltibia 54.9223 -0 0
lfoot -12.1349 2.18371 -0.18391
ltoes 2.96265 -0 0
rfemur -20.5348 -10.4573 4.74667
rtibia 46.5717 -0 0
rfoot -12.184 -4.503 -2.02861
rtoes 32.4277 -0 0
lowerback 1.91499 -2.20858 1.25442
upperback -0.601723 -2.87808 3.24612
thorax -1.57536 -1.41908 2.72781
lowerneck -11.2038 -3.80485 -0.978759
upperneck 1.2592 -4.9308 0.334896
head 2.38001 -2.45773 0.00682942
lclavicle 1.70955e-14 -1.66979e-14 0
lhumerus -52.0416 -35.933 120.492
lradius 61.6374 -0 0
lwrist 18.4122 0 0
lhand 8.02704 12.8992 -0.379679
lfingers 7.12502 -0 0
lthumb 33.3298 40.5492 -0.0318495
rclavicle 1.70955e-14 -1.66979e-14 0
rhumerus -41.8093 -1.85614 -75.4653
rradius 85.8679 -0 0
rwrist -1.57452 0 0
rhand 31.2826 -12.5549 -9.18403
rfingers 7.12502 -0 0
rthumb 45.8851 -45.4147 10.5895
242
root 5.92509 15.8777 -25.9243 9.75814 31.7151 -5.29124
lfemur -42.6773 32.0857 -10.6965
ltibia 54.4399 -0 0
lfoot -12.2488 1.34206 -0.164108
ltoes 7.047 -0 0
rfemur -20.0383 -8.99463 4.5336
rtibia 47.8501 -0 0
rfoot -9.22921 -5.78022 -2.05416
rtoes 28.7024 -0 0
lowerback 1.92929 -2.24444 1.06547
upperback -0.615409 -2.92897 3.32823
thorax -1.58196 -1.44179 2.91997
lowerneck -11.0765 -4.23198 -1.15925
upperneck 1.35035 -5.47759 0.35285
head 2.39544 -2.73109 0.0142539
lclavicle 1.70955e-14 -1.66979e-14 0
lhumerus -51.8726 -35.6279 120.417
lradius 61.6927 -0 0
lwrist 18.4701 0 0
lhand 7.60399 12.6465 -0.397579
lfingers 7.12502 -0 0
lthumb 32.9293 40.4047 -0.0359924
rclavicle 1.70955e-14 -1.66979e-14 0
rhumerus -42.3922 -2.18111 -75.353
rradius 81.8654 -0 0
rwrist 2.85163 0 0
rhand 27.4927 -10.5582 -9.40903
rfingers 7.12502 -0 0
rthumb 42.3099 -46.1226 10.334
243
root 6.00738 15.9068 -25.9167 9.65245 33.7508 -4.99003
lfemur -42.589 31.2538 -11.7022
ltibia 53.8524 -0 0
lfoot -12.4117 0.457993 -0.140794
ltoes 11.3054 -0 0
rfemur -19.5664 -7.52026 4.30377
rtibia 49.1645 -0 0
rfoot -6.24799 -7.03466 -2.01773
rtoes 24.9607 -0 0
lowerback 1.93685 -2.27984 0.868752
upperback -0.629481 -2.97959 3.39122
thorax -1.58567 -1.46467 3.09648
lowerneck -10.9453 -4.6575 -1.32882
upperneck 1.44716 -6.02475 0.373633
head 2.41237 -3.0043 0.0207254
lclavicle 1.70955e-14 -1.66979e-14 0
lhumerus -51.7168 -35.3361 120.333
lradius 61.7358 -0 0
lwrist 18.5444 0 0
lhand 7.23107 12.4211 -0.408314
lfingers 7.12502 -0 0
lthumb 32.575 40.2627 -0.0398076
rclavicle 1.70955e-14 -1.66979e-14 0
rhumerus -42.8954 -2.52768 -75.1052
rradius 77.7532 -0 0
rwrist 7.32159 0 0
rhand 23.4873 -8.62649 -9.3978
rfingers 7.12502 -0 0
rthumb 38.7071 -46.5355 9.85754
244
root 6.09242 15.9349 -25.9068 9.559 35.7428 -4.6604
lfemur -42.3633 30.3607 -12.6458
ltibia 53.1661 -0 0
lfoot -12.6221 -0.458908 -0.11549
ltoes 15.6915 -0 0
rfemur -19.1246 -6.0502 4.05867
rtibia 50.5006 -0 0
rfoot -3.27416 -8.24954 -1.92178
rtoes 21.2434 -0 0
lowerback 1.9376 -2.31444 0.666396
upperback -0.643761 -3.0294 3.43442
thorax -1.58641 -1.48747 3.25541
lowerneck -10.8117 -5.07683 -1.48564
upperneck 1.54854 -6.56635 0.396955
head 2.43063 -3.2744 0.026164
lclavicle 1.70955e-14 -1.66979e-14 0
lhumerus -51.5759 -35.0606 120.241
lradius 61.7662 -0 0
lwrist 18.6342 0 0
lhand 6.91228 12.2251 -0.411187
lfingers 7.12502 -0 0
lthumb 32.2707 40.1245 -0.0430464
rclavicle 1.70955e-14 -1.66979e-14 0
rhumerus -43.3147 -2.89082 -74.725
rradius 73.5759 -0 0
rwrist 11.7867 0 0
rhand 19.3235 -6.8038 -9.14981
rfingers 7.12502 -0 0
rthumb 35.1194 -46.6298 9.19282
245
root 6.18124 15.9624 -25.8946 9.48053 37.669 -4.30381
lfemur -42.0036 29.4179 -13.5206
ltibia 52.3877 -0 0
lfoot -12.8781 -1.39905 -0.0896842
ltoes 20.1589 -0 0
rfemur -18.7181 -4.60051 3.79923
rtibia 51.8441 -0 0
rfoot -0.341282 -9.40847 -1.77172
rtoes 17.5911 -0 0
lowerback 1.93145 -2.34788 0.460556
upperback -0.658066 -3.07787 3.45713
thorax -1.58415 -1.50996 3.39484
lowerneck -10.6773 -5.48537 -1.62781
upperneck 1.65344 -7.09643 0.42257
head 2.45004 -3.5384 0.030493
lclavicle 1.70955e-14 -1.66979e-14 0
lhumerus -51.4512 -34.8048 120.141
lradius 61.7835 -0 0
lwrist 18.7387 0 0
lhand 6.65165 12.061 -0.405525
lfingers 7.12502 -0 0
lthumb 32.0201 39.9919 -0.0454338
rclavicle 1.70955e-14 -1.66979e-14 0
rhumerus -43.646 -3.26616 -74.2158
rradius 69.3784 -0 0
rwrist 16.1983 0 0
rhand 15.0573 -5.13486 -8.67338
rfingers 7.12502 -0 0
rthumb 31.5849 -46.3863 8.37443
